<svg width="119" height="27" viewBox="0 0 119 27" fill="none" xmlns="http://www.w3.org/2000/svg">
<g clip-path="url(#clip0_6_20)">
<path d="M3.96834 16.1712C3.96834 17.9793 5.5549 18.7453 7.17621 18.7453C8.35359 18.7453 9.90927 18.2709 9.90927 16.7934C9.90927 15.5219 8.14513 15.0436 5.1766 14.4215C2.73306 13.8577 0.355143 13.0606 0.355143 10.335C0.355143 6.42728 3.70584 5.42023 6.97162 5.42023C10.2374 5.42023 13.3526 6.54393 13.6769 10.3078H9.70853C9.59273 8.67858 8.35745 8.23532 6.85581 8.23532C5.91391 8.23532 4.53194 8.38307 4.53194 9.65842C4.53194 11.1671 6.91371 11.377 9.26847 11.9408C11.7081 12.5046 14.0899 13.3911 14.0899 16.2334C14.0899 20.2617 10.5887 21.5642 7.14919 21.5642C3.7097 21.5642 0.14669 20.2306 0 16.1712H3.96834Z" fill="#231F20"/>
<path d="M30.7006 27H26.5238V19.033H26.435C25.3773 20.7827 23.5514 21.5798 21.9957 21.5798C17.5526 21.5798 16.437 19.0602 16.437 15.2691V5.85181H20.6137V14.4993C20.6137 17.0189 21.3202 18.2631 23.2889 18.2631C25.5549 18.2631 26.5238 16.9916 26.5238 13.8772V5.85181H30.7006V27Z" fill="#231F20"/>
<path d="M34.0976 5.83629H38.0389V7.90872H38.1007C39.1893 6.33787 40.745 5.42413 42.7446 5.42413C44.7442 5.42413 46.3616 6.10458 47.1839 7.97094C48.0949 6.63727 49.6544 5.42413 51.7698 5.42413C55.0047 5.42413 57.3286 6.93277 57.3286 10.9027V21.1482H53.1518V12.4696C53.1518 10.4244 52.9742 8.73692 50.5925 8.73692C48.2107 8.73692 47.7976 10.7199 47.7976 12.6174V21.1482H43.6209V12.5591C43.6209 10.786 43.7405 8.74081 41.0924 8.74081C40.2702 8.74081 38.2705 9.2735 38.2705 12.2674V21.1521H34.0938V5.83629H34.0976Z" fill="#231F20"/>
<path d="M60.6368 0H64.8136V7.69873H64.8754C65.9061 6.12788 67.786 5.42022 69.6698 5.42022C72.6963 5.42022 75.962 7.87759 75.962 13.4767C75.962 19.0757 72.6963 21.5642 69.6698 21.5642C67.4347 21.5642 65.5818 20.8799 64.6708 19.1924H64.609V21.1482H60.6407V0H60.6368ZM68.2222 8.58914C65.7517 8.58914 64.6631 10.8988 64.6631 13.5039C64.6631 16.109 65.7517 18.3914 68.2222 18.3914C70.6928 18.3914 71.7814 16.0507 71.7814 13.5039C71.7814 10.9571 70.6928 8.58914 68.2222 8.58914Z" fill="#231F20"/>
<path d="M85.9948 5.42023C90.7893 5.42023 93.8736 8.61637 93.8736 13.5039C93.8736 18.3914 90.7893 21.5603 85.9948 21.5603C81.2004 21.5603 78.1431 18.3642 78.1431 13.5039C78.1431 8.64359 81.2274 5.42023 85.9948 5.42023ZM85.9948 18.3953C88.8476 18.3953 89.7007 15.9652 89.7007 13.5078C89.7007 11.0504 88.8476 8.59304 85.9948 8.59304C83.1421 8.59304 82.3199 11.0504 82.3199 13.5078C82.3199 15.9652 83.173 18.3953 85.9948 18.3953Z" fill="#231F20"/>
<path d="M96.707 0H100.884V21.1482H96.707V0Z" fill="#231F20"/>
<path d="M115.028 19.1924H114.966C113.997 20.8527 112.322 21.5642 110.349 21.5642C105.763 21.5642 103.528 17.6254 103.528 13.36C103.528 9.09461 105.794 5.42411 110.26 5.42411C112.055 5.42411 113.82 6.19398 114.758 7.70262H114.819V0H118.996V21.1482H115.028V19.1924ZM111.384 8.58914C108.651 8.58914 107.709 10.9882 107.709 13.4767C107.709 15.9651 108.797 18.3953 111.384 18.3953C114.117 18.3953 114.97 15.9651 114.97 13.4495C114.97 10.9338 114.09 8.59303 111.384 8.59303V8.58914Z" fill="#231F20"/>
</g>
<defs>
<clipPath id="clip0_6_20">
<rect width="119" height="27" fill="white"/>
</clipPath>
</defs>
</svg>
