<svg width="32" height="32" viewBox="0 0 32 32" fill="none" xmlns="http://www.w3.org/2000/svg">
<path d="M4 14.5C3.17157 14.5 2.5 15.1716 2.5 16C2.5 16.8284 3.17157 17.5 4 17.5V16V14.5ZM28 17.5C28.8284 17.5 29.5 16.8284 29.5 16C29.5 15.1716 28.8284 14.5 28 14.5V16V17.5ZM4 6.5C3.17157 6.5 2.5 7.17157 2.5 8C2.5 8.82843 3.17157 9.5 4 9.5V8V6.5ZM28 9.5C28.8284 9.5 29.5 8.82843 29.5 8C29.5 7.17157 28.8284 6.5 28 6.5V8V9.5ZM4 22.5C3.17157 22.5 2.5 23.1716 2.5 24C2.5 24.8284 3.17157 25.5 4 25.5V24V22.5ZM28 25.5C28.8284 25.5 29.5 24.8284 29.5 24C29.5 23.1716 28.8284 22.5 28 22.5V24V25.5ZM4 16V17.5H28V16V14.5H4V16ZM4 8V9.5H28V8V6.5H4V8ZM4 24V25.5H28V24V22.5H4V24Z" fill="#1E1E1E"/>
</svg>
