<?xml version="1.0" encoding="UTF-8"?>
<svg id="Layer_1" xmlns="http://www.w3.org/2000/svg" version="1.1" viewBox="0 0 79.3 79.3">
  <circle cx="39.6" cy="39.6" r="39.6" fill="currentColor"/>
  <g>
    <path fill="#fff" d="M23.8,27.6v-5.4h5.8v5.4h-5.8ZM23.8,52.6v-21.9h5.8v21.9h-5.8Z"/>
    <path fill="#fff" d="M55.5,52.6h-5.8v-11.2c0-2.4-.1-3.9-.4-4.6-.2-.7-.7-1.2-1.2-1.6s-1.2-.6-2-.6-1.9.3-2.7.8c-.8.6-1.3,1.3-1.6,2.2-.3.9-.4,2.6-.4,5v9.9h-5.8v-21.9h5.4v3.2c1.9-2.5,4.3-3.7,7.2-3.7s2.5.2,3.5.7,1.9,1.1,2.4,1.8c.5.7.9,1.5,1.1,2.4.2.9.3,2.2.3,3.9v13.6Z"/>
  </g>
</svg>